<svg xmlns="http://www.w3.org/2000/svg" xml:space="preserve" viewBox="0 0 64 64"><path fill="#FFF" d="M0 0h64v64H0z" opacity="0"/><path d="M14.9 39.3c-.6-1-3.6-5.8-5.7-8.8-2.2-3-4.9-5.9-7.2-8.9-.1.3-.2.6-.3 1-.5 1.6-.9 3.2-1.2 4.9-.6 3.4-.6 6.9 0 10.4.3 1.7.7 3.3 1.3 4.9.5 1.6 1.1 3.1 1.9 4.5.7 1.5 1.6 2.9 2.5 4.2 1 1.3 2 2.6 3.2 3.7 2 2 4.3 3.8 6.8 5.2 2 1.1 2.7 1.1 3 1.1.4-.6.7-8.1.4-10-.7-4.4-2.3-8.5-4.7-12.2zM53.1 8.5c-.1-.1-.3-.2-.4-.3C43.8 1 31.6-.6 21.1 4c-.3 0-.7 0-1-.1-1.5 0-3.1.4-4.4 1.2-.9.5-1.7 1.1-2.5 1.7-1.3 1-2.6 2-3.7 3.2-1.2 1.2-2.2 2.4-3.2 3.7-1 1.3-1.8 2.8-2.6 4.2l-.3.5c1.3.4 6-.8 10.6-3 1.1 1.9 2.6 3.4 4.4 4.5-.8 1.5-1.2 3.2-1 4.8 1 7.3 11.5 11.9 15 13.4l.3.1c-1.8 1.2-3.3 2.6-4.6 4.3-1.7 2.2-2.3 5.1-1.5 7.8 1.8 6.5 8.1 12 12 12h.3c1.4-.3 2.8-.7 4.2-1.3 1.3.4 2.6.3 3.8-.3 5.5-2.9 10-7.2 13.1-12.6.2-.3 0-.5-.4-.5-.3 0-.5.1-.8.2.5-.9.9-1.9 1.3-2.8.7-.1 1.3-.4 1.7-.8 4.9-12.4 1.4-26.7-8.7-35.7zm-33.6 9.9c-1.5-.9-2.8-2.2-3.7-3.7 2.8-1.3 5.3-3.3 7.2-5.7 0 0 1.4-2.2.6-3.6 3.2-1.2 6.6-1.8 10-1.8 4.7 0 9.3 1.2 13.4 3.4h-.4c-7.3.1-21.7 4.5-27.1 11.4zm36.9 29.5c-.2.4-.5.7-.7 1.1-5.1 1.8-12.9 5.8-14 9.7-.1.3-.1.7-.1 1-1 .4-2 .6-3 .9h-.1c-2.5 0-8.4-4.3-10-10.5-.6-2.1-.1-4.4 1.3-6.1 1.4-1.9 3.2-3.4 5.3-4.6 5.1 1.9 16.4 5.8 22.7 6-.4.8-.9 1.7-1.4 2.5z"/></svg>